<svg xmlns="http://www.w3.org/2000/svg" xmlns:xlink="http://www.w3.org/1999/xlink" width="70" zoomAndPan="magnify" viewBox="0 0 52.5 52.499999" height="70" preserveAspectRatio="xMidYMid meet" version="1.2"><defs><clipPath id="7f93cfc1ae"><path d="M 1.113281 11.355469 L 50.898438 11.355469 L 50.898438 40.652344 L 1.113281 40.652344 Z M 1.113281 11.355469 "/></clipPath><clipPath id="3af08c7f60"><path d="M 3.34375 11.355469 L 48.660156 11.355469 C 49.253906 11.355469 49.820312 11.589844 50.238281 12.007812 C 50.65625 12.425781 50.890625 12.992188 50.890625 13.582031 L 50.890625 38.421875 C 50.890625 39.011719 50.65625 39.582031 50.238281 40 C 49.820312 40.417969 49.253906 40.652344 48.660156 40.652344 L 3.34375 40.652344 C 2.753906 40.652344 2.183594 40.417969 1.765625 40 C 1.347656 39.582031 1.113281 39.011719 1.113281 38.421875 L 1.113281 13.582031 C 1.113281 12.992188 1.347656 12.425781 1.765625 12.007812 C 2.183594 11.589844 2.753906 11.355469 3.34375 11.355469 Z M 3.34375 11.355469 "/></clipPath></defs><g id="11f1632fa8"><g clip-rule="nonzero" clip-path="url(#7f93cfc1ae)"><g clip-rule="nonzero" clip-path="url(#3af08c7f60)"><path style=" stroke:none;fill-rule:nonzero;fill:#ffffff;fill-opacity:1;" d="M 1.113281 11.355469 L 50.898438 11.355469 L 50.898438 40.652344 L 1.113281 40.652344 Z M 1.113281 11.355469 "/></g></g></g></svg>